<svg width="77" height="24" viewBox="0 0 77 24" fill="none" xmlns="http://www.w3.org/2000/svg">
<path d="M33.207 17.351C33.207 17.113 33.2183 16.8693 33.241 16.62C33.2637 16.3707 33.2863 16.1213 33.309 15.872C33.309 15.7927 33.292 15.7247 33.258 15.668C33.2353 15.6113 33.173 15.5717 33.071 15.549C32.935 15.515 32.8217 15.43 32.731 15.294C32.6517 15.1467 32.6177 14.988 32.629 14.818C32.6517 14.648 32.731 14.5007 32.867 14.376C32.9917 14.2513 33.1277 14.1663 33.275 14.121C33.377 14.0983 33.445 14.053 33.479 13.985C33.5243 13.917 33.5527 13.8433 33.564 13.764C33.5867 13.5147 33.6093 13.2653 33.632 13.016C33.666 12.7667 33.7 12.523 33.734 12.285C33.8247 11.673 33.9267 11.061 34.04 10.449C34.1533 9.837 34.2667 9.225 34.38 8.613C34.4593 8.28433 34.5273 7.95567 34.584 7.627C34.652 7.287 34.7427 6.95267 34.856 6.624C34.9013 6.522 34.941 6.42 34.975 6.318C35.0203 6.216 35.077 6.11967 35.145 6.029C35.349 5.689 35.621 5.519 35.961 5.519C36.3123 5.519 36.59 5.689 36.794 6.029C36.9187 6.199 37.0093 6.38033 37.066 6.573C37.1227 6.75433 37.168 6.94133 37.202 7.134C37.304 7.62133 37.389 8.11433 37.457 8.613C37.5363 9.10033 37.6157 9.59333 37.695 10.092C37.7517 10.6133 37.8027 11.1403 37.848 11.673C37.9047 12.1943 37.9557 12.7213 38.001 13.254C38.0123 13.3107 38.0293 13.373 38.052 13.441C38.086 13.4977 38.137 13.543 38.205 13.577C38.4997 13.8377 38.5223 14.0927 38.273 14.342C38.1597 14.478 38.12 14.6253 38.154 14.784C38.1767 15.09 38.1993 15.396 38.222 15.702C38.256 16.008 38.2843 16.314 38.307 16.62C38.3297 16.9033 38.358 17.1923 38.392 17.487C38.426 17.7817 38.4713 18.0763 38.528 18.371C38.5847 18.6317 38.494 18.813 38.256 18.915C38.0633 19.0283 37.865 18.983 37.661 18.779C37.5817 18.6997 37.5137 18.609 37.457 18.507C37.4003 18.3937 37.3493 18.2803 37.304 18.167C37.202 17.8723 37.1227 17.5777 37.066 17.283C37.0093 16.977 36.9527 16.671 36.896 16.365C36.862 16.1383 36.8223 15.9117 36.777 15.685C36.743 15.447 36.709 15.2147 36.675 14.988C36.6637 14.92 36.6467 14.869 36.624 14.835C36.6013 14.801 36.5503 14.7897 36.471 14.801C36.2557 14.8463 36.0347 14.8973 35.808 14.954C35.5813 14.9993 35.3603 15.0503 35.145 15.107C35.0203 15.141 34.958 15.2203 34.958 15.345C34.924 15.7643 34.8843 16.178 34.839 16.586C34.7937 16.994 34.7483 17.4133 34.703 17.844C34.6917 17.946 34.686 18.048 34.686 18.15C34.686 18.252 34.686 18.354 34.686 18.456C34.6293 18.8073 34.4593 19.0283 34.176 19.119C34.0287 19.1643 33.887 19.1587 33.751 19.102C33.6263 19.0567 33.513 18.983 33.411 18.881C33.3317 18.8017 33.2807 18.7223 33.258 18.643C33.2353 18.5523 33.224 18.456 33.224 18.354C33.2127 18.1953 33.207 18.0367 33.207 17.878C33.207 17.708 33.207 17.5323 33.207 17.351ZM35.876 8.817C35.808 8.919 35.774 8.99267 35.774 9.038C35.57 9.80867 35.417 10.585 35.315 11.367C35.281 11.707 35.2413 12.0527 35.196 12.404C35.162 12.744 35.128 13.084 35.094 13.424C35.0827 13.526 35.0827 13.5883 35.094 13.611C35.1167 13.6337 35.1847 13.6393 35.298 13.628C35.4567 13.6167 35.6153 13.5997 35.774 13.577C35.9327 13.5543 36.0857 13.5373 36.233 13.526C36.403 13.526 36.471 13.4523 36.437 13.305C36.403 13.0783 36.3747 12.8573 36.352 12.642C36.3293 12.4153 36.301 12.1943 36.267 11.979C36.2443 11.7297 36.216 11.486 36.182 11.248C36.148 11.01 36.1253 10.7663 36.114 10.517C36.0913 10.2337 36.0573 9.95033 36.012 9.667C35.978 9.38367 35.9327 9.10033 35.876 8.817ZM39.8179 16.212C39.8065 15.6453 39.8915 15.124 40.0729 14.648C40.2655 14.172 40.5205 13.7243 40.8379 13.305C41.1552 12.897 41.5802 12.5967 42.1129 12.404C42.3282 12.3473 42.5435 12.3303 42.7589 12.353C42.9742 12.3643 43.1839 12.4323 43.3879 12.557C43.4785 12.625 43.5522 12.6987 43.6089 12.778C43.6769 12.8573 43.7222 12.948 43.7449 13.05C43.8015 13.3333 43.7449 13.5657 43.5749 13.747C43.4049 13.917 43.1895 13.9737 42.9289 13.917C42.7815 13.8717 42.6512 13.8717 42.5379 13.917C42.4245 13.9623 42.3169 14.036 42.2149 14.138C41.4895 14.9653 41.2515 15.8947 41.5009 16.926C41.5802 17.2547 41.7049 17.453 41.8749 17.521C42.0449 17.589 42.2829 17.5493 42.5889 17.402C42.8042 17.3 42.9855 17.147 43.1329 16.943C43.1555 16.8863 43.1839 16.841 43.2179 16.807C43.2519 16.773 43.2915 16.7333 43.3369 16.688C43.4502 16.552 43.5862 16.518 43.7449 16.586C43.9262 16.6767 44.0169 16.807 44.0169 16.977C44.0395 17.2263 43.9942 17.453 43.8809 17.657C43.7789 17.8497 43.6485 18.0367 43.4899 18.218C43.2745 18.4333 43.0365 18.6033 42.7759 18.728C42.5265 18.8527 42.2545 18.949 41.9599 19.017C41.7105 19.051 41.4725 19.0397 41.2459 18.983C41.0305 18.915 40.8322 18.7903 40.6509 18.609C40.4242 18.3823 40.2485 18.133 40.1239 17.861C40.0105 17.5777 39.9255 17.283 39.8689 16.977C39.8462 16.8523 39.8292 16.722 39.8179 16.586C39.8065 16.45 39.8065 16.3253 39.8179 16.212ZM45.313 16.212C45.3017 15.6453 45.3867 15.124 45.568 14.648C45.7607 14.172 46.0157 13.7243 46.333 13.305C46.6503 12.897 47.0753 12.5967 47.608 12.404C47.8233 12.3473 48.0387 12.3303 48.254 12.353C48.4693 12.3643 48.679 12.4323 48.883 12.557C48.9737 12.625 49.0473 12.6987 49.104 12.778C49.172 12.8573 49.2173 12.948 49.24 13.05C49.2967 13.3333 49.24 13.5657 49.07 13.747C48.9 13.917 48.6847 13.9737 48.424 13.917C48.2767 13.8717 48.1463 13.8717 48.033 13.917C47.9197 13.9623 47.812 14.036 47.71 14.138C46.9847 14.9653 46.7467 15.8947 46.996 16.926C47.0753 17.2547 47.2 17.453 47.37 17.521C47.54 17.589 47.778 17.5493 48.084 17.402C48.2993 17.3 48.4807 17.147 48.628 16.943C48.6507 16.8863 48.679 16.841 48.713 16.807C48.747 16.773 48.7867 16.7333 48.832 16.688C48.9453 16.552 49.0813 16.518 49.24 16.586C49.4213 16.6767 49.512 16.807 49.512 16.977C49.5347 17.2263 49.4893 17.453 49.376 17.657C49.274 17.8497 49.1437 18.0367 48.985 18.218C48.7697 18.4333 48.5317 18.6033 48.271 18.728C48.0217 18.8527 47.7497 18.949 47.455 19.017C47.2057 19.051 46.9677 19.0397 46.741 18.983C46.5257 18.915 46.3273 18.7903 46.146 18.609C45.9193 18.3823 45.7437 18.133 45.619 17.861C45.5057 17.5777 45.4207 17.283 45.364 16.977C45.3413 16.8523 45.3243 16.722 45.313 16.586C45.3017 16.45 45.3017 16.3253 45.313 16.212ZM55.8741 15.243C55.8174 16.3537 55.4094 17.3907 54.6501 18.354C54.5141 18.5353 54.3554 18.694 54.1741 18.83C53.9928 18.9547 53.7888 19.051 53.5621 19.119C53.1201 19.221 52.6951 19.17 52.2871 18.966C52.1398 18.8753 51.9981 18.7677 51.8621 18.643C51.7261 18.507 51.6128 18.3653 51.5221 18.218C51.2274 17.7533 51.0291 17.2773 50.9271 16.79C50.8251 16.2913 50.7911 15.7813 50.8251 15.26C50.8704 14.7953 50.9724 14.3533 51.1311 13.934C51.2898 13.5033 51.5221 13.1123 51.8281 12.761C52.0888 12.4777 52.4004 12.302 52.7631 12.234C52.9331 12.1887 53.0861 12.1887 53.2221 12.234C53.3581 12.268 53.4884 12.336 53.6131 12.438C53.6471 12.472 53.6868 12.4947 53.7321 12.506C53.7774 12.506 53.8284 12.506 53.8851 12.506C54.1911 12.472 54.4631 12.5173 54.7011 12.642C54.9504 12.7667 55.1658 12.9537 55.3471 13.203C55.5511 13.4863 55.6871 13.7923 55.7551 14.121C55.8344 14.4383 55.8741 14.8123 55.8741 15.243ZM53.4601 13.968C53.3354 13.968 53.2051 13.985 53.0691 14.019C52.9558 14.019 52.8708 14.0473 52.8141 14.104C52.7574 14.1607 52.7064 14.24 52.6611 14.342C52.5024 14.7613 52.4174 15.1807 52.4061 15.6C52.4061 16.0193 52.4684 16.4443 52.5931 16.875C52.6611 17.0563 52.7688 17.2433 52.9161 17.436C52.9954 17.5153 53.0521 17.5607 53.0861 17.572C53.1314 17.572 53.1938 17.5323 53.2731 17.453C53.3751 17.351 53.4714 17.249 53.5621 17.147C53.6641 17.0337 53.7491 16.9147 53.8171 16.79C53.8738 16.654 53.9304 16.5123 53.9871 16.365C54.0551 16.2177 54.1061 16.0703 54.1401 15.923C54.1968 15.7077 54.2421 15.4923 54.2761 15.277C54.3101 15.0503 54.2988 14.8237 54.2421 14.597C54.1854 14.359 54.1004 14.1947 53.9871 14.104C53.8738 14.0133 53.6981 13.968 53.4601 13.968ZM61.3145 17.504C61.2692 17.5833 61.2182 17.657 61.1615 17.725C61.1162 17.793 61.0652 17.8667 61.0085 17.946C60.9292 18.0593 60.8385 18.1727 60.7365 18.286C60.6458 18.388 60.5438 18.4843 60.4305 18.575C60.0565 18.847 59.6882 18.9547 59.3255 18.898C58.9628 18.8413 58.6568 18.711 58.4075 18.507C58.1015 18.2463 57.8805 17.9403 57.7445 17.589C57.4272 16.875 57.2402 16.144 57.1835 15.396C57.1382 14.648 57.2005 13.9 57.3705 13.152C57.4385 12.8007 57.5915 12.5287 57.8295 12.336C57.9315 12.2453 58.0392 12.183 58.1525 12.149C58.2658 12.1037 58.3848 12.115 58.5095 12.183C58.6342 12.2283 58.7248 12.3077 58.7815 12.421C58.8382 12.523 58.8665 12.6363 58.8665 12.761C58.8665 12.863 58.8665 12.965 58.8665 13.067C58.8665 13.169 58.8608 13.2653 58.8495 13.356C58.8042 13.7073 58.7815 14.0643 58.7815 14.427C58.7815 14.7783 58.8042 15.1353 58.8495 15.498C58.8722 15.7473 58.9062 15.9967 58.9515 16.246C59.0082 16.484 59.0932 16.7163 59.2065 16.943C59.2292 16.9883 59.2518 17.0223 59.2745 17.045C59.3425 17.1697 59.4048 17.2433 59.4615 17.266C59.5182 17.2887 59.6088 17.266 59.7335 17.198C59.9942 17.0393 60.1982 16.8353 60.3455 16.586C60.5155 16.3707 60.6458 16.1383 60.7365 15.889C60.8272 15.6397 60.9008 15.3903 60.9575 15.141C61.0595 14.733 61.1275 14.3193 61.1615 13.9C61.1955 13.4807 61.2068 13.0613 61.1955 12.642C61.1955 12.2907 61.3315 12.0187 61.6035 11.826C61.8302 11.6673 62.0795 11.6333 62.3515 11.724C62.6348 11.8147 62.8162 12.0357 62.8955 12.387C62.9408 12.5683 62.9635 12.7553 62.9635 12.948C62.9748 13.1293 62.9692 13.3163 62.9465 13.509C62.9352 14.0983 62.9238 14.6877 62.9125 15.277C62.9012 15.855 62.9125 16.4387 62.9465 17.028C62.9692 17.3113 62.9748 17.606 62.9635 17.912C62.9522 18.218 62.9408 18.5183 62.9295 18.813C62.8955 19.0623 62.7652 19.238 62.5385 19.34C62.4252 19.3853 62.3118 19.3853 62.1985 19.34C62.0852 19.2947 61.9888 19.2267 61.9095 19.136C61.8415 19.0567 61.7848 18.983 61.7395 18.915C61.7055 18.8357 61.6772 18.7563 61.6545 18.677C61.5865 18.4843 61.5242 18.2917 61.4675 18.099C61.4222 17.9063 61.3712 17.708 61.3145 17.504ZM67.6214 14.495C67.4174 14.6763 67.27 14.8633 67.1794 15.056C66.9414 15.4753 66.7487 15.9173 66.6014 16.382C66.454 16.8467 66.3407 17.3227 66.2614 17.81C66.25 17.9233 66.2274 18.0367 66.1934 18.15C66.1594 18.2633 66.114 18.3653 66.0574 18.456C65.8874 18.7393 65.6607 18.864 65.3774 18.83C65.23 18.83 65.1054 18.7903 65.0034 18.711C64.9014 18.6317 64.8107 18.5297 64.7314 18.405C64.686 18.303 64.652 18.1953 64.6294 18.082C64.618 17.9687 64.601 17.8553 64.5784 17.742C64.5217 17.2887 64.4594 16.8353 64.3914 16.382C64.3347 15.9173 64.295 15.4583 64.2724 15.005C64.2497 14.699 64.2497 14.393 64.2724 14.087C64.295 13.781 64.329 13.475 64.3744 13.169C64.3744 13.1123 64.3857 13.0613 64.4084 13.016C64.431 12.9593 64.448 12.9083 64.4594 12.863C64.5614 12.5797 64.7484 12.455 65.0204 12.489C65.1337 12.5003 65.2357 12.5513 65.3264 12.642C65.417 12.7327 65.468 12.8403 65.4794 12.965C65.5134 13.237 65.5417 13.5033 65.5644 13.764C65.5984 14.0247 65.638 14.2853 65.6834 14.546C65.6947 14.5913 65.7004 14.648 65.7004 14.716C65.7004 14.7727 65.7174 14.8293 65.7514 14.886C65.808 14.8633 65.842 14.835 65.8534 14.801C65.8647 14.7557 65.876 14.716 65.8874 14.682C66.0007 14.4553 66.114 14.2343 66.2274 14.019C66.3407 13.7923 66.471 13.5883 66.6184 13.407C66.6864 13.3163 66.7544 13.2313 66.8224 13.152C66.8904 13.0613 66.9697 12.982 67.0604 12.914C67.355 12.676 67.6724 12.5853 68.0124 12.642C68.3524 12.6873 68.63 12.8743 68.8454 13.203C68.9474 13.3843 69.0267 13.577 69.0834 13.781C69.14 13.9737 69.1797 14.172 69.2024 14.376C69.259 14.716 69.3044 15.0617 69.3384 15.413C69.3837 15.753 69.429 16.093 69.4744 16.433C69.497 16.637 69.5254 16.841 69.5594 17.045C69.6047 17.2377 69.6387 17.436 69.6614 17.64C69.684 17.7193 69.7124 17.7873 69.7464 17.844C69.7804 17.9007 69.837 17.9573 69.9164 18.014C70.1544 18.1387 70.228 18.337 70.1374 18.609C70.0354 18.8923 69.8597 19.068 69.6104 19.136C69.361 19.204 69.123 19.1473 68.8964 18.966C68.7944 18.8753 68.7094 18.779 68.6414 18.677C68.5734 18.575 68.511 18.4673 68.4544 18.354C68.273 18.0253 68.137 17.691 68.0464 17.351C67.9557 17.011 67.8877 16.654 67.8424 16.28C67.8084 16.0193 67.78 15.753 67.7574 15.481C67.7347 15.209 67.695 14.9427 67.6384 14.682C67.6384 14.6593 67.6327 14.6367 67.6214 14.614C67.6214 14.58 67.6214 14.5403 67.6214 14.495ZM72.8209 18.252C73.0815 18.0593 73.2855 17.8553 73.4329 17.64C73.6369 17.3567 73.8352 17.0677 74.0279 16.773C74.2319 16.4783 74.4075 16.1723 74.5549 15.855C74.5662 15.8097 74.5775 15.7757 74.5889 15.753C74.6002 15.719 74.6059 15.685 74.6059 15.651C74.6172 15.413 74.7532 15.2657 75.0139 15.209C75.2745 15.1863 75.4672 15.2827 75.5919 15.498C75.6599 15.5773 75.6995 15.6623 75.7109 15.753C75.7335 15.8323 75.7449 15.923 75.7449 16.025C75.6995 16.6257 75.5409 17.2037 75.2689 17.759C74.9289 18.4277 74.4755 18.983 73.9089 19.425C73.7842 19.527 73.6539 19.612 73.5179 19.68C73.3932 19.7593 73.2515 19.816 73.0929 19.85C72.8095 19.918 72.5262 19.8897 72.2429 19.765C71.9595 19.6517 71.7329 19.4703 71.5629 19.221C71.4609 19.051 71.3702 18.8753 71.2909 18.694C71.2115 18.5013 71.1435 18.3087 71.0869 18.116C70.9395 17.6967 70.8319 17.266 70.7639 16.824C70.6959 16.382 70.6335 15.94 70.5769 15.498C70.4862 14.8633 70.4182 14.2173 70.3729 13.56C70.3162 12.9027 70.2879 12.2453 70.2879 11.588C70.2879 11.4633 70.2765 11.3897 70.2539 11.367C70.2312 11.3443 70.1519 11.3443 70.0159 11.367C69.8685 11.401 69.7212 11.4407 69.5739 11.486C69.4152 11.52 69.2565 11.5483 69.0979 11.571C68.9052 11.6163 68.7012 11.588 68.4859 11.486C68.2819 11.3613 68.1685 11.1913 68.1459 10.976C68.1232 10.7493 68.1912 10.5567 68.3499 10.398C68.5085 10.262 68.6785 10.1657 68.8599 10.109C69.0639 10.0523 69.2679 9.99567 69.4719 9.939C69.6645 9.88233 69.8629 9.83133 70.0669 9.786C70.2029 9.76333 70.2879 9.74067 70.3219 9.718C70.3445 9.684 70.3615 9.59333 70.3729 9.446C70.3842 9.06067 70.4182 8.681 70.4749 8.307C70.5202 7.92167 70.5939 7.53633 70.6959 7.151C70.7412 7.015 70.7809 6.879 70.8149 6.743C70.8602 6.59567 70.9225 6.45967 71.0019 6.335C71.0699 6.24433 71.1379 6.165 71.2059 6.097C71.2739 6.01767 71.3532 5.95533 71.4439 5.91C71.6592 5.76267 71.8972 5.75133 72.1579 5.876C72.2712 5.95533 72.3392 6.05167 72.3619 6.165C72.3959 6.27833 72.4015 6.39733 72.3789 6.522C72.3562 6.77133 72.3109 7.02067 72.2429 7.27C72.1749 7.508 72.1295 7.75733 72.1069 8.018C72.0842 8.23333 72.0559 8.44867 72.0219 8.664C71.9992 8.87933 71.9765 9.10033 71.9539 9.327C71.9539 9.429 71.9595 9.49133 71.9709 9.514C71.9935 9.52533 72.0615 9.531 72.1749 9.531C72.4015 9.531 72.6169 9.52533 72.8209 9.514C73.0249 9.50267 73.2345 9.497 73.4499 9.497C73.8352 9.497 74.1582 9.64433 74.4189 9.939C74.4869 9.99567 74.5379 10.0637 74.5719 10.143C74.6172 10.211 74.6455 10.2847 74.6569 10.364C74.6795 10.5567 74.6172 10.7267 74.4699 10.874C74.3225 11.01 74.1695 11.044 74.0109 10.976C73.9882 10.976 73.9599 10.976 73.9259 10.976C73.9032 10.9647 73.8749 10.9647 73.8409 10.976C73.5915 11.0667 73.3365 11.1063 73.0759 11.095C72.8265 11.0837 72.5715 11.095 72.3109 11.129H72.0729C71.9369 11.129 71.8689 11.197 71.8689 11.333C71.8915 11.5483 71.9029 11.7637 71.9029 11.979C71.9029 12.183 71.9085 12.3927 71.9199 12.608C71.9425 13.1633 71.9822 13.7187 72.0389 14.274C72.0955 14.8293 72.1692 15.379 72.2599 15.923C72.2939 16.2063 72.3335 16.4897 72.3789 16.773C72.4355 17.045 72.5035 17.3227 72.5829 17.606C72.6055 17.708 72.6395 17.81 72.6849 17.912C72.7302 18.014 72.7755 18.1273 72.8209 18.252Z" fill="white"/>
<path fill-rule="evenodd" clip-rule="evenodd" d="M12 2C6.48 2 2 6.48 2 12C2 17.52 6.48 22 12 22C17.52 22 22 17.52 22 12C22 6.48 17.52 2 12 2ZM7.07 18.28C7.5 17.38 10.12 16.5 12 16.5C13.88 16.5 16.51 17.38 16.93 18.28C15.57 19.36 13.86 20 12 20C10.14 20 8.43 19.36 7.07 18.28ZM18.36 16.83C16.93 15.09 13.46 14.5 12 14.5C10.54 14.5 7.07 15.09 5.64 16.83C4.62 15.49 4 13.82 4 12C4 7.59 7.59 4 12 4C16.41 4 20 7.59 20 12C20 13.82 19.38 15.49 18.36 16.83ZM12 6C10.06 6 8.5 7.56 8.5 9.5C8.5 11.44 10.06 13 12 13C13.94 13 15.5 11.44 15.5 9.5C15.5 7.56 13.94 6 12 6ZM12 11C11.17 11 10.5 10.33 10.5 9.5C10.5 8.67 11.17 8 12 8C12.83 8 13.5 8.67 13.5 9.5C13.5 10.33 12.83 11 12 11Z" fill="white"/>
<mask id="mask0_1_65" style="mask-type:luminance" maskUnits="userSpaceOnUse" x="2" y="2" width="20" height="20">
<path fill-rule="evenodd" clip-rule="evenodd" d="M12 2C6.48 2 2 6.48 2 12C2 17.52 6.48 22 12 22C17.52 22 22 17.52 22 12C22 6.48 17.52 2 12 2ZM7.07 18.28C7.5 17.38 10.12 16.5 12 16.5C13.88 16.5 16.51 17.38 16.93 18.28C15.57 19.36 13.86 20 12 20C10.14 20 8.43 19.36 7.07 18.28ZM18.36 16.83C16.93 15.09 13.46 14.5 12 14.5C10.54 14.5 7.07 15.09 5.64 16.83C4.62 15.49 4 13.82 4 12C4 7.59 7.59 4 12 4C16.41 4 20 7.59 20 12C20 13.82 19.38 15.49 18.36 16.83ZM12 6C10.06 6 8.5 7.56 8.5 9.5C8.5 11.44 10.06 13 12 13C13.94 13 15.5 11.44 15.5 9.5C15.5 7.56 13.94 6 12 6ZM12 11C11.17 11 10.5 10.33 10.5 9.5C10.5 8.67 11.17 8 12 8C12.83 8 13.5 8.67 13.5 9.5C13.5 10.33 12.83 11 12 11Z" fill="white"/>
</mask>
<g mask="url(#mask0_1_65)">
</g>
</svg>
