<svg width="267" height="26" viewBox="0 0 267 26" fill="none" xmlns="http://www.w3.org/2000/svg">
<g clip-path="url(#clip0_1_71)">
<path d="M14.256 24C13.9147 24 13.6587 23.936 13.488 23.808C13.3387 23.68 13.264 23.4667 13.264 23.168V18.976C12.9867 18.784 12.464 18.6133 11.696 18.464C10.928 18.3147 10.2027 18.2187 9.52 18.176C9.28533 18.624 9.11467 19.168 9.008 19.808L8.88 20.448C8.85867 20.5973 8.79467 20.928 8.688 21.44C8.58133 21.952 8.464 22.4 8.336 22.784C8.208 23.1467 8.08 23.4347 7.952 23.648C7.14133 23.648 6.672 23.4347 6.544 23.008C6.77867 22.6667 7.04533 21.664 7.344 20L8.4 14.144C8.86933 11.3707 9.296 9.00267 9.68 7.04C10.0853 5.07733 10.512 3.43467 10.96 2.112C11.4507 0.639999 11.92 -0.0960007 12.368 -0.0960007C12.816 -0.0960007 13.1573 -0.0106678 13.392 0.159998C13.392 1.01333 13.5947 3.072 14 6.336C14.4267 9.536 14.64 11.7227 14.64 12.896C14.64 14.0267 14.7573 15.648 14.992 17.76C15.2053 19.9147 15.312 21.632 15.312 22.912C15.312 23.6373 14.96 24 14.256 24ZM12.592 17.12C12.7627 17.12 12.976 17.088 13.232 17.024C13.168 16.0853 13.0613 14.9227 12.912 13.536C12.4213 8.71467 12.176 5.76 12.176 4.672V4.416C11.9627 4.62933 11.664 5.6 11.28 7.328C10.9173 9.03467 10.576 10.8693 10.256 12.832C9.936 14.7947 9.76533 16.096 9.744 16.736C10.64 16.992 11.5893 17.12 12.592 17.12Z" fill="white"/>
<path d="M41.392 24.352C41.1147 24.352 40.8587 24.2453 40.624 24.032C40.4107 23.84 40.304 23.6053 40.304 23.328C40.304 23.136 40.3467 22.9013 40.432 22.624C40.496 22.3253 40.528 22.1013 40.528 21.952C40.528 20.0533 40.4213 16.4053 40.208 11.008C39.9947 6.4 39.888 2.76267 39.888 0.0959988C39.888 -0.0960013 39.9627 -0.245335 40.112 -0.352001C40.2613 -0.480001 40.4427 -0.544001 40.656 -0.544001C40.912 -0.544001 41.136 -0.448001 41.328 -0.256001C41.52 -0.0853348 41.616 0.127998 41.616 0.383999C41.616 1.664 41.68 3.584 41.808 6.144C41.9147 8.98133 41.968 10.9013 41.968 11.904L42 12.288V12.672V12.896V13.056C42.064 14.912 42.096 17.6853 42.096 21.376V22.208H44.56C45.008 22.528 45.232 22.848 45.232 23.168C45.232 23.4027 45.1467 23.616 44.976 23.808C44.8267 23.9787 44.6453 24.064 44.432 24.064C44.368 24.064 44.2507 24.0427 44.08 24L43.952 23.968C43.824 23.9893 43.6213 24 43.344 24H42.8C42.6507 23.9787 42.48 23.968 42.288 23.968C42.0747 24.224 41.776 24.352 41.392 24.352Z" fill="white"/>
<path d="M70.32 24.224C70 24.224 69.744 24.0747 69.552 23.776C69.3813 23.456 69.296 23.072 69.296 22.624C69.296 21.92 69.3387 21.056 69.424 20.032L69.488 19.2L69.552 17.504C69.552 16.7573 69.4773 15.0933 69.328 12.512C69.1787 9.93067 69.104 8.26667 69.104 7.52C69.104 7.456 69.104 7.33867 69.104 7.168C69.1253 6.976 69.136 6.688 69.136 6.304C69.1573 5.87733 69.168 5.35467 69.168 4.736C69.168 3.17867 69.0613 2.18667 68.848 1.76C68.72 1.76 68.4427 1.792 68.016 1.856L67.12 1.92C66.8427 1.92 66.5973 1.84533 66.384 1.696C66.1707 1.52533 66.064 1.312 66.064 1.056C66.064 0.799999 66.32 0.575999 66.832 0.383999C67.5787 0.127998 68.848 -0.0533352 70.64 -0.160002C71.3653 -0.202668 71.8027 -0.224001 71.952 -0.224001C72.208 -0.224001 72.4427 -0.138667 72.656 0.0319996C72.8693 0.202665 72.976 0.415998 72.976 0.671999C72.976 0.927999 72.88 1.14133 72.688 1.312C72.5173 1.46133 72.2933 1.536 72.016 1.536L71.44 1.504C71.2693 1.48267 71.0773 1.472 70.864 1.472H70.544C70.6933 2.92267 70.768 4.23467 70.768 5.408L70.736 7.456C70.7147 8.07467 70.704 8.768 70.704 9.536C70.704 10.56 70.7467 11.7867 70.832 13.216C70.9387 14.9867 70.992 16.2133 70.992 16.896C70.992 17.7067 71.0347 18.6667 71.12 19.776C71.2053 20.9067 71.248 21.8667 71.248 22.656C71.248 23.7013 70.9387 24.224 70.32 24.224Z" fill="white"/>
<path d="M101.744 24.192C101.339 24.192 100.987 24.1387 100.688 24.032C100.325 23.9253 100.144 23.6267 100.144 23.136V4.544C100.144 4.18133 100.08 3.63733 99.952 2.912C99.8027 2.25067 99.728 1.70667 99.728 1.28V1.184C100.091 0.586665 100.357 0.202665 100.528 0.0319996C100.827 0.0319996 101.221 -0.0106672 101.712 -0.0960007C102.16 -0.181334 102.555 -0.224001 102.896 -0.224001C103.237 -0.224001 103.568 -0.117334 103.888 0.0959988C104.208 0.287999 104.368 0.522666 104.368 0.799999C104.368 1.44 103.877 1.76 102.896 1.76H102.448C102.32 1.73867 102.171 1.728 102 1.728C101.808 1.728 101.691 1.73867 101.648 1.76C101.648 2.48533 101.691 3.36 101.776 4.384L101.84 5.28L101.904 7.04C101.904 7.44533 101.872 8.064 101.808 8.896L101.744 10.688L102.192 10.592C102.619 10.464 102.971 10.4 103.248 10.4C103.483 10.4 103.696 10.496 103.888 10.688C104.08 10.8587 104.176 11.0613 104.176 11.296C104.176 11.552 104.091 11.7867 103.92 12C103.771 12.192 103.579 12.288 103.344 12.288L102.96 12.256H102.544C102.224 12.256 102 12.3307 101.872 12.48V22.368L103.664 22.272C104.88 22.272 105.488 22.5493 105.488 23.104V23.232C105.36 23.488 105.125 23.7013 104.784 23.872C104.443 24.0213 104.112 24.1173 103.792 24.16L102.736 24.192H101.744Z" fill="white"/>
<path d="M134.84 24.32C134.435 24.32 134.04 24.032 133.656 23.456V23.36C133.592 22.2293 133.4 20.9707 133.08 19.584C132.76 18.1973 132.291 16.5227 131.672 14.56C131.203 13.088 130.808 11.7653 130.488 10.592V23.2C130.488 23.5413 130.424 23.7973 130.296 23.968C130.189 24.1173 129.965 24.192 129.624 24.192C129.368 24.192 129.165 24.1173 129.016 23.968C128.867 23.7973 128.792 23.584 128.792 23.328V23.072L128.856 13.664C128.899 10.8907 128.92 7.76533 128.92 4.288V0.351999C128.92 0.0959988 128.973 -0.0746682 129.08 -0.160002C129.187 -0.266668 129.411 -0.320002 129.752 -0.320002C130.285 -0.320002 130.776 -0.213335 131.224 -1.90735e-06C131.672 0.191998 132.056 0.469332 132.376 0.831999C133.037 1.57867 133.464 2.47467 133.656 3.52C133.741 3.94667 133.784 4.43733 133.784 4.992C133.784 5.312 133.752 5.664 133.688 6.048C133.645 6.432 133.613 6.67733 133.592 6.784C133.549 6.99733 133.453 7.31733 133.304 7.744C133.155 8.17067 133.059 8.448 133.016 8.576L132.632 9.472L132.312 10.304C132.333 11.072 132.461 12.0427 132.696 13.216C132.952 14.3893 133.229 15.4773 133.528 16.48C133.741 17.184 134.125 18.3573 134.68 20L135.608 22.816V22.88C135.608 23.2427 135.576 23.552 135.512 23.808C135.448 24.1493 135.224 24.32 134.84 24.32ZM130.424 9.152C130.723 8.85333 131.085 8.43733 131.512 7.904L131.992 5.152C132.013 5.04533 132.024 4.896 132.024 4.704C132.024 4.08533 131.907 3.37067 131.672 2.56C131.544 2.176 131.373 1.856 131.16 1.6C130.968 1.32266 130.765 1.17333 130.552 1.152L130.488 4.352C130.424 5.78133 130.392 6.89067 130.392 7.68C130.392 8.42667 130.403 8.91733 130.424 9.152Z" fill="white"/>
<path d="M160.744 24.192C160.339 24.192 159.987 24.1387 159.688 24.032C159.325 23.9253 159.144 23.6267 159.144 23.136V4.544C159.144 4.18133 159.08 3.63733 158.952 2.912C158.803 2.25067 158.728 1.70667 158.728 1.28V1.184C159.091 0.586665 159.357 0.202665 159.528 0.0319996C159.827 0.0319996 160.221 -0.0106672 160.712 -0.0960007C161.16 -0.181334 161.555 -0.224001 161.896 -0.224001C162.237 -0.224001 162.568 -0.117334 162.888 0.0959988C163.208 0.287999 163.368 0.522666 163.368 0.799999C163.368 1.44 162.877 1.76 161.896 1.76H161.448C161.32 1.73867 161.171 1.728 161 1.728C160.808 1.728 160.691 1.73867 160.648 1.76C160.648 2.48533 160.691 3.36 160.776 4.384L160.84 5.28L160.904 7.04C160.904 7.44533 160.872 8.064 160.808 8.896L160.744 10.688L161.192 10.592C161.619 10.464 161.971 10.4 162.248 10.4C162.483 10.4 162.696 10.496 162.888 10.688C163.08 10.8587 163.176 11.0613 163.176 11.296C163.176 11.552 163.091 11.7867 162.92 12C162.771 12.192 162.579 12.288 162.344 12.288L161.96 12.256H161.544C161.224 12.256 161 12.3307 160.872 12.48V22.368L162.664 22.272C163.88 22.272 164.488 22.5493 164.488 23.104V23.232C164.36 23.488 164.125 23.7013 163.784 23.872C163.443 24.0213 163.112 24.1173 162.792 24.16L161.736 24.192H160.744Z" fill="white"/>
<path d="M193.04 24.832C191.867 24.832 190.896 24.48 190.128 23.776C189.509 23.264 188.944 22.3893 188.432 21.152C188.112 20.3413 187.856 19.2 187.664 17.728C187.515 16.5333 187.44 15.4027 187.44 14.336C187.419 14.0587 187.408 13.5787 187.408 12.896V11.808V10.528C187.408 9.61067 187.44 8.512 187.504 7.232C187.589 6.144 187.76 5.03467 188.016 3.904C188.293 2.79467 188.699 1.856 189.232 1.088C189.765 0.277333 190.48 -0.298667 191.376 -0.640001C191.909 -0.789334 192.411 -0.864 192.88 -0.864C193.776 -0.864 194.224 -0.565334 194.224 0.0319996C194.224 0.266666 194.139 0.458666 193.968 0.608C193.819 0.735999 193.616 0.799999 193.36 0.799999C193.275 0.799999 193.125 0.767999 192.912 0.703999L192.464 0.639999C192.059 0.639999 191.696 0.767999 191.376 1.024C191.056 1.25867 190.789 1.61067 190.576 2.08C190.085 3.104 189.755 4.224 189.584 5.44C189.349 6.93333 189.221 8.23467 189.2 9.344C189.157 10.304 189.136 11.3173 189.136 12.384V13.248C189.115 13.5467 189.104 13.92 189.104 14.368C189.104 15.456 189.157 16.5227 189.264 17.568C189.349 18.8053 189.584 19.872 189.968 20.768C190.309 21.7707 190.864 22.4747 191.632 22.88C191.995 23.0933 192.443 23.2 192.976 23.2C193.915 23.2 194.704 22.752 195.344 21.856C195.323 21.1093 195.269 20.384 195.184 19.68C195.099 18.9547 194.971 18.464 194.8 18.208C194.779 18.208 194.725 18.2187 194.64 18.24C194.576 18.24 194.469 18.2507 194.32 18.272L193.552 18.336C192.827 18.336 192.464 18.0267 192.464 17.408C192.464 17.216 192.571 17.0453 192.784 16.896C192.997 16.7467 193.285 16.64 193.648 16.576C194.245 16.4267 194.779 16.352 195.248 16.352C195.675 16.352 196.005 16.512 196.24 16.832C196.475 17.152 196.592 17.5573 196.592 18.048C196.592 18.752 196.699 19.712 196.912 20.928C197.125 22.1227 197.232 23.072 197.232 23.776C197.232 24.0107 197.157 24.2133 197.008 24.384C196.859 24.5547 196.677 24.64 196.464 24.64C195.931 24.64 195.568 24.416 195.376 23.968V23.936L194.672 24.288C194.032 24.6507 193.488 24.832 193.04 24.832Z" fill="white"/>
<path d="M224.112 24.896C223.536 24.896 223.013 24.704 222.544 24.32C222.075 23.936 221.669 23.4133 221.328 22.752C220.709 21.6 220.251 20.0213 219.952 18.016C219.739 16.6293 219.579 15.0293 219.472 13.216L219.44 11.52V9.792C219.419 9.23733 219.408 8.56533 219.408 7.776C219.408 6.496 219.461 5.36533 219.568 4.384C219.653 3.36 219.867 2.34667 220.208 1.344C220.549 0.469333 221.04 -0.149334 221.68 -0.512001C222.064 -0.682668 222.448 -0.768002 222.832 -0.768002C223.963 -0.768002 224.859 -0.320002 225.52 0.575998C226.245 1.57866 226.725 2.69866 226.96 3.936C227.301 5.42933 227.493 6.85867 227.536 8.224C227.621 9.73867 227.664 11.168 227.664 12.512V14.336C227.664 14.6987 227.611 15.3813 227.504 16.384C227.419 17.1733 227.376 17.8453 227.376 18.4V18.528C227.248 19.1253 227.184 19.8293 227.184 20.64C227.184 21.2373 227.056 21.856 226.8 22.496C226.544 23.136 226.181 23.68 225.712 24.128C225.243 24.64 224.709 24.896 224.112 24.896ZM224.176 23.136C224.603 23.136 224.965 22.7413 225.264 21.952C225.52 21.248 225.701 20.3947 225.808 19.392C225.936 18.368 226.043 17.216 226.128 15.936C226.171 15.3813 226.192 14.6667 226.192 13.792L226.16 10.848C226.117 9.696 225.989 8.256 225.776 6.528C225.605 5.056 225.285 3.75467 224.816 2.624C224.603 2.09067 224.336 1.67467 224.016 1.376C223.696 1.07733 223.355 0.927999 222.992 0.927999C222.459 0.927999 222.064 1.344 221.808 2.176C221.488 3.05067 221.275 4.01067 221.168 5.056C221.04 6.18667 220.965 7.264 220.944 8.288L220.912 9.344C220.891 9.64267 220.88 10.048 220.88 10.56V10.688C220.88 12.1173 221.029 13.8773 221.328 15.968C221.669 18.8053 222.171 20.8213 222.832 22.016C223.259 22.7627 223.707 23.136 224.176 23.136Z" fill="white"/>
</g>
<defs>
<clipPath id="clip0_1_71">
<rect width="267" height="26" fill="white"/>
</clipPath>
</defs>
</svg>
